<svg xmlns="http://www.w3.org/2000/svg" xml:space="preserve" width="650" height="650" viewBox="-176.966 -215.01 650 650"><path d="M-176.966-215.01h650v650h-650z" style="fill:#fff;fill-opacity:1;stroke:none;stroke-width:1.2301;stroke-linecap:round;stroke-linejoin:miter;stroke-miterlimit:4;stroke-dasharray:none;stroke-dashoffset:0;stroke-opacity:1"/><path d="M138.45-163.142a22.052 22.127 0 0 0-22.053 22.127 22.052 22.127 0 0 0 2.471 10.16c-8.365 4.215-16.12 8.75-23.259 13.66a22.052 22.127 0 0 0-17.67-8.93A22.052 22.127 0 0 0 55.886-104a22.052 22.127 0 0 0 7.658 16.748 124.8 124.8 0 0 0-13.64 22.245 22.052 22.127 0 0 0-10.373-2.612 22.052 22.127 0 0 0-22.053 22.13 22.052 22.127 0 0 0 19.885 22.02 191 191 0 0 0-.67 4.422C8.21 189.764 14.457 242.41-13.222 359.96c23.225-7.883 42.724-68.125 64.07-102.414l31.29 127.083 33.523-131.569c20.536 36.83 32.018 97.28 61.836 109.89-17.528-106.155-34.106-223.708-43.954-348.358-2.925-37.033 4.413-48.689 16.39-69.523 12.306-21.408 80.075-44.75 89.397 13.455 7.597 47.431-44.265 45.961-58.108 17.943l-25.33 20.184c20.404 16.528 29.398 42.768 75.984 33.247A22.052 22.127 0 0 0 253.089 46a22.052 22.127 0 0 0 22.051-22.129 22.052 22.127 0 0 0-5.853-14.981c4.606-7.17 8.45-16.233 11.496-26.298a22.052 22.127 0 0 0 7.23 1.249 22.052 22.127 0 0 0 22.051-22.127 22.052 22.127 0 0 0-22.05-22.129 22.052 22.127 0 0 0-1.019.037c-.493-9.054-2.35-17.878-5.88-26.247a22.052 22.127 0 0 0 10.517-18.842 22.052 22.127 0 0 0-22.051-22.126 22.052 22.127 0 0 0-16.163 7.115c-7.201-5.375-15.184-9.933-23.587-13.65a22.052 22.127 0 0 0 1.022-6.65 22.052 22.127 0 0 0-22.05-22.126 22.052 22.127 0 0 0-21.547 17.477c-3.962-.41-7.893-.649-11.758-.697-5.296-.066-10.46.228-15.427.852a22.052 22.127 0 0 0-21.62-17.871z" style="fill:#e8423f;fill-opacity:1;stroke:#0b0000;stroke-width:4;stroke-linecap:round;stroke-linejoin:miter;stroke-miterlimit:4;stroke-dasharray:none;stroke-dashoffset:0;stroke-opacity:1"/><path d="M82.137 384.63s-.988-200.1-2.234-299.768c-.287-22.935 1.03-45.121 2.235-68.027.99-18.829-4.595-40.14 8.195-69.522 6.54-15.024 13.562-24.092 23.84-32.892 11.658-9.983 27.038-17.146 40.974-20.932 11.05-3.001 30.427-5.622 41.72-3.737 12.738 2.126 24.122 5 35.015 11.96 9.637 6.159 18.217 16.931 23.84 26.912 4.984 8.85 8.336 18.991 8.194 29.155.937 32.165-19.249 43.656-34.27 44.056-16.07.428-19.345-4.655-28.31-7.625" style="fill:none;fill-rule:evenodd;stroke:#000;stroke-width:4;stroke-linecap:butt;stroke-linejoin:miter;stroke-miterlimit:4;stroke-dasharray:none;stroke-opacity:1"/><path d="M5.235 13.437h154.193v72.758H5.235z" style="fill:#e8423f;fill-opacity:1;stroke:#000;stroke-width:4;stroke-linecap:round;stroke-linejoin:miter;stroke-miterlimit:4;stroke-dasharray:none;stroke-dashoffset:0;stroke-opacity:1"/><path d="M-12.146 31.547H176.81v36.538H-12.146z" style="fill:#e8423f;fill-opacity:1;stroke:#000;stroke-width:4;stroke-linecap:round;stroke-linejoin:miter;stroke-miterlimit:4;stroke-dasharray:none;stroke-dashoffset:0;stroke-opacity:1"/></svg>