<svg xmlns="http://www.w3.org/2000/svg" xml:space="preserve" width="467" height="468" viewBox="-204.155 -205.386 467.268 468.788"><g xmlns="http://www.w3.org/2000/svg" xmlns:sodipodi="http://sodipodi.sourceforge.net/DTD/sodipodi-0.dtd"><path d="M-205.156-206.387h469.267v470.79h-469.267Z"/><path d="M-89.794-206.387H25.567V3.74H-89.794Z"/><path fill="#fff" d="M-56.224 414.163v340.195h600V414.163Z" style="stroke-width:.970234" transform="matrix(.78211 0 0 .70902 -161.182 -270.454)"/><path fill="#fff" d="M91.276 90.359v317.92h147.5V90.36Z" style="stroke-width:1.03574" transform="matrix(.78211 0 0 .70902 -161.182 -270.454)"/><path fill="#ed1c24" d="M267.737 452.473c-2.244 0-7.856 1.192-8.978 1.192-2.244 0-6.733 2.38-7.856 4.763 0 2.382 1.122 2.38 3.366 2.38h2.246c-1.123-1.19-3.367-2.378-1.123-3.57 3.367-2.38 12.345-2.384 12.345-2.384 1.122-1.19 1.122-2.38 0-2.38m11.223 2.381c-1.122 0-1.122.001-2.245 1.193 2.245 1.19 3.367 1.19 5.612 2.38 1.122 1.191 2.244 1.191 2.244 2.382 1.122-1.19-3.367-5.955-5.611-5.955m-84.17 5.956c-3.366 1.19-4.488 4.764-3.366 8.338 0 2.38 2.245 4.763 4.49 5.954 5.61 3.573 12.343 3.572 17.954 2.381 3.367-1.19 6.735-1.19 7.857 1.192h16.834c-3.367-5.955-7.856-7.146-12.345-7.146-4.49-1.19-10.1-.001-14.59-1.192-5.61-1.19-13.466-1.191-16.833-9.527" style="stroke-width:.9247" transform="matrix(.78211 0 0 .70902 -161.182 -270.454)"/><path d="M272.226 425.082c2.245 8.337 1.122 11.908-7.856 13.1-8.978 1.19-10.1 3.573-13.467 4.763-3.366 1.19-14.589 2.383-20.2 3.574s-6.734 3.573-7.856 8.337c0 1.19 5.611 0 7.856 0 1.122 0 3.367 1.19 3.367 2.381 0 2.381-2.245 2.383-3.367 2.383h-8.978c-3.367-1.19-3.367 2.381-3.367 4.764 0 2.381 1.122 2.381 3.367 2.381h14.59c3.366 0 5.61 2.381 5.61 5.954 0 2.381-2.244 4.764-4.489 4.764-1.122 0-14.589 1.192-15.711 2.383-2.245 0-3.367 1.19-3.367 2.381s2.245 2.382 4.49 3.574c3.366 1.19 3.366 3.571 2.244 5.954-3.367 5.954-6.734 9.527-13.467 10.718-4.49 1.19-6.734 3.573 5.61 4.764 10.101 1.19 16.835-4.764 22.446-14.291 2.244-4.764 6.733-7.144 14.59-3.572 5.61 2.381 10.1 3.573 22.444-1.19v1.19c-8.978 7.146-19.078 7.144-28.056 3.572-2.245 3.572-2.245 7.146-5.611 10.72-12.345 9.528-50.502 14.29-66.213 51.21-3.367 5.955-2.245 7.145 3.367 7.145 5.61 1.19 8.978 2.383 12.344 7.147-3.366 0-6.733 0-10.1-1.19-5.611-1.19-11.222-2.382-16.834-4.764-7.855-3.574-15.711-4.765-24.69-3.574-3.366 1.19-7.855 0-12.344 0-12.345-1.19-24.69-3.573-37.034-4.764-6.734-1.19-13.467 0-19.079 3.574-3.366 2.38-4.489 4.762 1.123 11.909 4.489 4.764 12.344 7.146 17.956 4.764 5.61-2.382 10.1 0 11.222 5.954 0 2.381 2.245 3.573 5.611 2.383 4.49-1.19 7.856-2.383 11.223-3.573 10.1-2.382 19.078-1.192 29.179 1.19 20.2 4.764 38.156 14.292 54.99 28.584q3.366 3.57 6.733 0c7.856-8.337 24.69-13.102 51.624-13.102 1.122 4.764 1.122 7.147 2.245 11.911-40.402 7.146-54.99 27.391-57.235 32.155-3.367 8.336-16.834 14.292-30.301 9.528 4.489 14.292 23.567 10.72 33.667 3.573-1.122 7.146-5.61 8.337-10.1 9.528s-8.978 1.19-13.467 2.381c2.245 3.573 8.978 5.955 14.59 4.764 5.61-1.19 10.1-3.572 15.71-5.954-3.366 7.145-10.1 8.336-16.833 10.718 4.49 3.572 8.978 2.383 13.467 1.192 4.49-1.19 7.856-4.765 11.223-7.147 1.122 3.573-1.123 5.956-3.367 7.147-6.734 3.573-13.467 7.146-20.2 9.528-14.59 4.764-29.18 8.337-40.402 20.246-2.244 2.381-3.366 4.762 0 7.145 1.009 1.07 2.496 2.126 4.105 3.088a110 110 0 0 0-6.35-1.897c-6.733 9.528-17.955 27.39-17.955 28.583 0 2.381 10.1 1.19 14.589-1.19 7.856-3.574 14.59-8.339 17.956-16.675.708-3.005.518-4.584-.56-5.642 2.775.352 5.426-.711 7.294-2.693 3.366-3.574 6.733-3.574 11.222 0 1.122 2.38 4.49 1.19 5.611-1.19 7.856-13.101 19.079-20.247 32.546-23.82l10.1-3.574c8.978-4.764 28.056-13.101 28.056-17.865 0-2.382-3.366-3.573-6.733-4.764-23.568-11.91 16.834-40.492 34.79-42.873 1.122 1.19-5.612 8.335-1.123 22.627 2.245 5.954 8.978 8.336 13.467 4.764 3.367-2.382 4.49-7.146 2.245-9.528-4.49-5.955-5.611-11.908-5.611-19.054 0-13.1-21.323-14.291-26.934-14.291 0-1.191 1.122-4.765 1.122-7.147 12.345 2.38 22.445 7.146 25.812 13.1 2.244 4.765 4.489 21.438 11.222 30.965 5.611 9.528 10.1 9.53 13.467 17.866 4.49 9.527 5.611 16.672 0 25.01-1.122 1.19-1.122 2.38-2.244 3.571 13.467-2.38 13.467-13.1 14.589-23.818 4.489 8.337 3.367 14.291 0 22.628 5.611-1.19 8.978-4.764 10.1-9.528s1.122-9.528 2.245-14.292c1.122 3.573 3.366 5.955 3.366 9.528 1.123 2.382 0 5.955-1.122 9.528 8.978-2.381 7.856-11.91 10.1-19.056 4.49 1.19 12.345 8.337 15.712 17.865 4.489 15.482-15.712 23.819-15.712 25.01 0 1.19 2.245 3.574 5.612 4.764s8.978 2.383 13.467 3.574c1.122 0 3.367-1.193 3.367-2.383 3.366-8.337 5.61-10.719 14.589-9.528 2.244 0 3.367-1.19 4.489-3.572 1.122-5.954 1.122-10.718-2.245-14.291-5.611-8.337-14.589-16.673-20.2-25.01-2.245-3.573-1.123-10.719-3.367-15.483-2.245-4.764-5.611-8.337-7.856-11.91s-3.367-3.572-6.733-1.19c-5.612 4.763-7.856 4.763-12.345 0-3.367-3.573-13.467-29.774-23.567-35.73 4.489-2.381 5.61-2.381 10.1 0 5.611 3.573 12.345 8.336 20.2 7.146 6.734 0 12.345-2.383 15.712-8.338-7.856 1.19-12.345 2.382-17.956 0 0-2.38 25.812-2.38 28.056-25.01-7.856 9.528-17.956 10.719-28.056 9.528-10.1 0-20.2.002-29.179 5.956-10.1-15.482-20.2-21.438-34.79-26.202-16.833-5.955-22.444-14.29-20.2-15.482 2.245-1.192 12.345 1.19 14.59-5.955 0 0-5.612-1.191-7.856-2.383-1.123 0-3.367-2.38-2.245-3.571 1.122-1.19 3.367-1.193 4.489-1.193 6.734 1.19 11.223-1.19 13.467-5.954-3.367 0-5.611-1.19-8.978-2.381-1.122-1.19-2.244-2.382-2.244-3.573 0-1.192 2.244-1.191 3.366-1.191 6.734 1.19 12.345-1.191 15.712-8.337-3.367 0-6.734-1.19-10.1-2.381-4.49-2.381-1.123-4.765 0-7.147 1.122-1.19 2.244-2.381 4.489-1.19 4.489 2.381 8.978 4.763 13.467 4.763 5.61 0 21.322 0 22.445-3.573 1.122-8.336-14.59-8.336-20.2-9.528-4.49-1.19-10.101-2.38-14.59-3.571v-1.193c1.122 0 35.912 3.575 53.868 11.91 19.078 9.529 38.157 21.438 47.135 40.493 12.344 27.392-3.367 36.92-3.367 38.112 2.244 4.763 32.545-11.911 15.711-52.402-2.244 0-7.855 2.381-7.855 2.381s4.489-4.764 5.61-7.145c3.368-4.764 1.123-10.719-2.244-10.719-6.733 0-11.222-7.145-14.589-10.718-5.611-3.573-11.223 5.954-11.223 5.954s5.612-11.91 1.123-17.865c-2.245-1.19-4.49-2.38-7.856 0-1.122 0-10.1-4.763-13.467-5.954-3.367-1.192-10.1 7.147-10.1 7.147s1.122-9.528 1.122-13.102c0-4.764-5.611-7.146-8.978-4.764-3.367 1.19-10.1 0-13.467-1.19-4.49-1.19-8.978 9.528-8.978 9.528s0-9.528-1.122-13.102c-1.123-4.763-4.49-5.955-7.856-3.573-3.367 2.382-10.1 1.19-14.59 1.19-2.244 0-2.244-3.571-2.244-5.954s2.245-2.38 3.367-2.38c84.169-2.382 136.915 45.255 124.57 75.03 13.467 0 19.078-34.54-2.245-54.785-1.122 2.382-5.61 7.145-6.733 7.145l-1.122-1.19c1.122-1.19 1.122-2.381 2.244-4.764 1.122-2.381 2.245-4.762 2.245-7.145 0-5.955-2.245-8.337-7.856-8.337-2.245 0-4.49 0-5.611-1.191-4.49-1.19-7.856-3.571-12.345-5.954-4.49-3.573-5.611 5.953-7.856 8.335-1.122-2.381 0-8.336 0-10.718 0-4.764-3.367-7.145-7.856-5.955h-4.489c-6.733-2.38-12.345-3.571-19.078-5.954-1.122 4.764-2.245 7.146-3.367 10.718h-1.122c0-3.572 2.244-19.055-6.734-15.482-4.489 1.19-16.833 0-20.2 0q-3.367 0-3.367 3.571c0 3.574-3.367 10.719-3.367 9.528-3.366-20.246-7.855-17.864-13.467-14.291-3.366 1.19-7.855 1.192-8.978 1.192s-2.244-2.382-2.244-3.573c-2.245-3.573-5.611-5.955-8.978-5.955 2.244 5.955 1.122 8.337-2.245 10.718-2.244-9.527-4.489-10.718-8.978-10.718zm-3.367 27.391c1.123 1.19 0 2.383 0 3.574 0 4.764 5.612 4.764 6.734 3.573 1.122-1.19 1.122-4.764 3.367-4.764s6.733 4.764 6.733 5.955c-2.244 5.954-8.978 5.954-14.589 5.954-3.367 0-6.734-3.573-8.978-4.764-2.245-1.19-3.367-1.19-6.734-1.19-2.244 0-3.366 0-3.366-2.381 1.122-2.382 5.611-4.764 7.855-4.764 1.123 0 6.734-1.193 8.978-1.193M79.54 484.351c-3.96-.26-4.695 2.213-3.712 7.424 2.244 4.764 3.366 8.337 5.61 13.101 1.123 2.381 2.245 3.572 5.612 2.381 4.49-1.19 11.223 2.383 12.345 7.147q1.684 5.36 6.733 3.574c3.367-1.191 5.612-3.574 8.978-3.574 8.978 1.19 17.956 1.19 26.935 5.955 13.467 7.145 29.178 23.82 32.545 27.393l13.467-17.866q-10.1-3.572-16.834-14.291c-6.733-8.338-14.59-13.1-25.812-10.719-1.122 1.19-2.244 0-3.367 0-5.61-1.19-38.156-17.864-60.601-20.246a13.5 13.5 0 0 0-1.899-.279m-31.769 1.47s-2.244 0 0 1.19c0 1.19 2.245 3.574 3.367 3.574h19.078c1.123 0 2.245-1.19 2.245-1.19s-1.122-2.384-2.245-2.384c-3.366-1.19-6.733-1.19-6.733-1.19zm19.079 9.527c-5.612 0-21.323 1.191-21.323 1.191s1.122 2.382 4.489 4.764q6.733 7.146 16.834 10.718c2.244 1.19 5.61 1.193 8.978 1.193 3.366-1.19 4.489-3.574 2.244-7.147 0-1.19-2.244-2.381-2.244-4.764-1.123-4.764-3.367-5.955-8.978-5.955m-2.245 65.502c-8.978 2.38-16.834 5.955-25.812 9.528 3.367 3.572 6.734 4.765 11.223 2.383 3.367-1.19 7.856-3.573 12.345-4.764 3.366-1.19 4.489-2.383 2.244-7.147m.561 9.044a4.1 4.1 0 0 0-1.683.484c-3.367 2.38-19.078 9.528-20.2 9.528 11.222 4.764 23.567 8.336 34.79 4.764 2.244 0 3.366-1.192 5.61-3.574v-3.571c0-1.19-2.244-.002-3.366-1.193-1.123-1.19-6.734-2.382-10.1-4.764-1.684-.893-3.367-1.785-5.05-1.674m86.975 137.441s-20.2 29.773-20.2 30.965c0 1.19 6.733 0 7.855-1.191 5.611-8.336 15.712-25.01 15.712-25.01zm209.735 2.772c-.579-.02-1.28.206-2.121.801-1.122 0-13.467 26.201-12.345 27.392s4.489 1.192 6.733-2.381c2.245-3.574 6.734-15.484 10.1-22.63 0-.893-.63-3.126-2.367-3.182m7.61 3.908c-1.314-.056-2.156 1.061-2.998 2.848 0 2.38-11.222 25.009-10.1 26.2 1.122 1.192 7.856-2.382 11.223-3.573 3.366-1.19 12.344-8.336 15.711-15.482 1.122-2.381 1.122-4.763-2.244-5.955l-10.1-3.573c-.562-.298-1.053-.447-1.491-.465" style="stroke-width:.9247" transform="matrix(.78211 0 0 .70902 -161.182 -270.454)"/><path fill="#0068b3" d="M246.276 90.36v117.143h108.75V90.36Zm152.5 0v153.495h145V214.23h-118.75V90.359Zm-152.5 162.927v29.624h116.25V408.13h28.75V253.28Zm186.25 37.701v117.143h111.25V290.988Z" style="stroke-width:1.03768" transform="matrix(.78211 0 0 .70902 -161.182 -270.454)"/><path fill="#fddd04" d="M362.526 90.36v123.873h-116.25v29.624h145V90.363Zm70.002 0v115.797h111.25V90.36Zm-33.751 162.927v154.851h26.25V282.92h118.75v-29.624zm-152.5 37.701v117.143h108.75V290.988Z" style="stroke-width:1.03768" transform="matrix(.78211 0 0 .70902 -161.182 -270.454)"/><path fill="#ed1c24" d="M273.654 602.772c0 2.38-1.122 4.764-3.367 4.764-1.122 0-3.367-2.382-3.367-4.764 0-3.573 1.122-4.764 3.367-4.764s3.367 1.19 3.367 4.764" style="stroke-width:.9247" transform="matrix(.78211 0 0 .70902 -161.182 -270.454)"/></g></svg>